<?xml version="1.0" standalone="no"?>
<!DOCTYPE svg PUBLIC "-//W3C//DTD SVG 20010904//EN"
 "http://www.w3.org/TR/2001/REC-SVG-20010904/DTD/svg10.dtd">
<svg version="1.0" xmlns="http://www.w3.org/2000/svg"
 width="1950.000000pt" height="1545.000000pt" viewBox="0 0 1950.000000 1545.000000"
 preserveAspectRatio="xMidYMid meet">

<g transform="translate(0.000000,1545.000000) scale(0.100000,-0.100000)"
fill="#ffffff" stroke="none">
<path d="M12998 13639 c-770 -44 -1428 -425 -1917 -1111 -45 -62 -729 -1066
-1521 -2231 l-1440 -2118 268 -391 c148 -216 273 -393 278 -395 5 -1 718 1040
1584 2314 866 1274 1613 2366 1659 2425 46 60 129 152 186 206 282 269 560
392 955 422 88 6 1088 10 2867 10 l2733 0 285 431 c157 237 285 435 285 440 0
11 -6023 10 -6222 -2z"/>
<path d="M202 13531 c6 -17 6313 -9301 6318 -9301 8 1 1483 2174 1482 2185 0
6 -121 187 -268 403 -215 316 -270 391 -279 380 -7 -7 -218 -316 -470 -686
-252 -369 -461 -672 -465 -672 -4 0 -1183 1732 -2621 3850 l-2614 3849 -543 1
c-320 0 -542 -4 -540 -9z"/>
<path d="M3380 13393 c55 -82 1479 -2175 3163 -4653 1684 -2478 3066 -4505
3071 -4505 5 0 561 850 1236 1889 675 1040 1259 1933 1298 1985 224 305 501
506 808 586 200 52 80 50 2744 46 l2485 -3 275 433 c151 238 277 436 278 441
2 4 -1254 8 -2792 8 -3051 0 -2889 3 -3141 -57 -543 -128 -993 -437 -1374
-941 -34 -46 -456 -689 -937 -1430 -481 -741 -879 -1347 -884 -1347 -5 0
-1194 1730 -2643 3845 l-2633 3845 -527 3 -527 2 100 -147z"/>
<path d="M11624 5362 c-112 -39 -206 -121 -268 -237 -63 -115 -316 -604 -316
-609 0 -4 212 -5 472 -4 l472 3 232 405 c128 223 240 417 249 433 l16 27 -403
0 c-358 -1 -409 -3 -454 -18z"/>
<path d="M13133 5365 c-24 -7 -65 -27 -93 -45 -89 -57 -142 -127 -241 -318
-51 -97 -130 -248 -176 -334 -45 -86 -83 -160 -83 -163 0 -3 1223 -5 2718 -5
l2717 0 252 440 252 440 -2652 -1 c-2174 0 -2660 -3 -2694 -14z"/>
<path d="M15830 1930 l0 -900 95 0 95 0 0 900 0 900 -95 0 -95 0 0 -900z"/>
<path d="M16340 2685 l0 -145 95 0 95 0 0 145 0 145 -95 0 -95 0 0 -145z"/>
<path d="M18030 1930 l0 -900 95 0 95 0 1 363 c0 457 8 606 37 669 29 66 104
143 171 175 50 25 67 28 156 28 95 0 103 -2 163 -34 75 -41 125 -94 161 -170
l26 -56 3 -487 3 -488 97 0 97 0 -3 457 c-1 252 -7 490 -12 528 -28 197 -194
378 -395 431 -64 18 -226 18 -290 0 -58 -15 -126 -48 -172 -82 -17 -13 -34
-24 -37 -24 -3 0 -6 110 -6 245 l0 245 -95 0 -95 0 0 -900z"/>
<path d="M3125 2462 c-249 -64 -440 -243 -525 -492 -31 -93 -39 -279 -15 -384
44 -199 187 -387 366 -481 122 -64 171 -77 314 -82 146 -6 213 6 324 57 168
79 294 208 376 383 58 126 62 117 -54 117 l-100 0 -38 -72 c-94 -180 -281
-298 -473 -298 -249 0 -464 167 -526 410 -8 33 -12 65 -9 70 4 6 228 10 637
10 l631 0 -6 78 c-22 300 -229 572 -509 669 -99 34 -288 42 -393 15z m319
-192 c105 -27 169 -63 243 -136 59 -60 111 -149 127 -216 l6 -28 -521 0 -521
0 6 28 c28 112 135 247 243 305 121 64 280 82 417 47z"/>
<path d="M4826 2464 c-266 -57 -489 -281 -550 -551 -20 -89 -20 -235 -1 -328
8 -38 36 -113 61 -165 39 -79 62 -109 138 -186 76 -76 106 -99 183 -137 128
-63 213 -80 371 -75 104 4 140 9 200 31 95 33 170 79 244 146 l58 53 0 -111 0
-111 95 0 95 0 0 715 0 715 -95 0 -95 0 0 -106 0 -106 -61 55 c-75 68 -219
142 -314 162 -89 18 -239 18 -329 -1z m339 -204 c317 -118 457 -472 302 -764
-41 -78 -145 -182 -223 -223 -312 -165 -691 6 -779 352 -60 236 63 494 288
605 45 22 102 45 127 50 73 15 217 5 285 -20z"/>
<path d="M7995 2462 c-259 -67 -470 -275 -535 -528 -27 -105 -27 -263 0 -368
36 -144 128 -289 241 -383 65 -53 212 -127 294 -148 79 -20 262 -20 340 0 218
57 402 214 500 428 58 127 62 117 -54 117 l-100 0 -38 -72 c-69 -131 -202
-241 -342 -282 -69 -20 -189 -21 -264 -1 -206 53 -368 228 -402 433 l-7 42
636 0 636 0 0 45 c0 25 -7 80 -16 122 -58 282 -252 500 -524 590 -72 24 -280
27 -365 5z m357 -201 c162 -52 279 -174 332 -348 l7 -23 -521 0 -522 0 6 28
c28 113 139 253 245 306 134 69 309 83 453 37z"/>
<path d="M9536 2464 c-86 -21 -193 -81 -258 -146 -72 -72 -134 -194 -148 -293
-5 -38 -10 -278 -10 -532 l0 -463 94 0 95 0 3 493 3 492 28 60 c37 78 104 147
181 181 51 24 74 28 146 28 71 1 94 -4 141 -26 133 -61 209 -179 209 -323 0
-63 3 -65 106 -65 l93 0 -5 68 c-15 186 -50 270 -158 378 -140 140 -329 194
-520 148z"/>
<path d="M11555 2464 c-38 -8 -113 -36 -165 -61 -80 -40 -109 -61 -185 -137
-150 -152 -219 -313 -218 -516 1 -180 49 -318 157 -458 136 -173 345 -272 575
-272 282 0 525 157 655 425 71 145 75 135 -43 135 l-100 0 -38 -72 c-168 -322
-587 -396 -845 -151 -91 87 -143 183 -163 301 l-7 42 636 0 636 0 0 45 c0 64
-27 189 -57 260 -62 149 -180 291 -308 370 -111 69 -208 98 -345 101 -77 2
-138 -2 -185 -12z m309 -194 c132 -34 232 -102 300 -205 29 -43 76 -150 76
-172 0 -1 -234 -3 -521 -3 l-521 0 7 33 c4 17 23 62 42 100 108 205 369 311
617 247z"/>
<path d="M13103 2465 c-200 -43 -374 -216 -413 -410 -6 -27 -13 -269 -17 -537
l-6 -488 101 0 101 0 3 498 3 497 27 57 c83 178 307 255 481 166 52 -26 123
-93 152 -142 40 -70 45 -133 45 -618 l0 -458 100 0 100 0 -1 168 c0 92 -4 322
-8 512 -8 393 -11 406 -98 534 -124 182 -349 269 -570 221z"/>
<path d="M14655 2465 c-484 -106 -725 -660 -473 -1090 92 -157 269 -290 444
-335 143 -37 335 -24 459 31 256 113 430 363 459 662 l7 67 -396 0 -395 0 0
-95 0 -95 286 0 287 0 -7 -32 c-27 -138 -169 -286 -326 -340 -88 -31 -266 -33
-354 -4 -232 76 -396 325 -372 563 32 314 338 545 638 482 166 -35 321 -164
394 -325 20 -46 26 -52 61 -57 59 -10 163 -8 163 3 0 5 -11 40 -25 77 -92 245
-307 438 -541 488 -84 18 -228 18 -309 0z"/>
<path d="M17210 2467 c-106 -25 -191 -91 -243 -192 -30 -57 -32 -66 -32 -170
0 -100 2 -115 27 -161 51 -97 115 -141 317 -215 203 -74 260 -122 269 -224 7
-88 -13 -141 -77 -206 -81 -80 -176 -103 -275 -65 -87 33 -176 165 -176 261
l0 35 -98 0 -98 0 7 -62 c9 -89 17 -114 58 -193 68 -132 186 -221 326 -246
192 -33 397 75 486 256 33 68 34 72 34 200 0 123 -2 133 -28 183 -55 105 -125
153 -355 242 -136 53 -190 88 -218 141 -32 62 -5 156 58 200 21 16 50 24 89
27 55 4 58 3 102 -37 43 -40 77 -107 77 -153 0 -16 10 -18 95 -18 l95 0 0 34
c0 51 -34 149 -70 206 -82 128 -228 189 -370 157z"/>
<path d="M6002 2458 c2 -7 119 -331 258 -720 l254 -708 87 0 c85 0 87 0 98 27
28 71 501 1396 501 1404 0 5 -46 9 -103 9 l-102 0 -194 -545 c-107 -300 -198
-542 -201 -538 -6 6 -290 792 -382 1056 l-10 27 -105 0 c-80 0 -104 -3 -101
-12z"/>
<path d="M290 1981 c0 -276 4 -501 10 -532 17 -90 75 -196 149 -270 215 -215
549 -212 769 7 l72 72 23 -27 c67 -79 189 -156 301 -190 264 -81 562 83 652
359 16 49 18 107 22 558 l3 502 -95 0 -96 0 0 -442 c0 -467 -5 -544 -40 -611
-131 -255 -495 -259 -629 -8 -45 85 -51 157 -51 649 l0 412 -95 0 -94 0 -3
-492 c-3 -481 -4 -494 -25 -540 -25 -54 -92 -131 -144 -164 -173 -109 -410
-42 -501 144 l-33 67 -3 492 -3 493 -94 0 -95 0 0 -479z"/>
<path d="M16340 1745 l0 -715 95 0 95 0 0 715 0 715 -95 0 -95 0 0 -715z"/>
</g>
</svg>
